mastitorrents.com
  
http://mastitorrents.com/forums/index.php
 
http://thepiratebay.org/user/HDvideos/0/7

Format                                  : Matroska
Format version                          : Version 2
File size                               : 597 MiB
Duration                                : 2h 6mn
Overall bit rate                        : 658 Kbps
Encoded date                            : UTC 2011-10-08 22:56:59
Writing application                     : mkvmerge v4.9.1 ('Ich will') built on Jul 11 2011 23:53:15
Writing library                         : libebml v1.2.1 + libmatroska v1.1.1

Video
ID                                      : 1
Format                                  : AVC
Format/Info                             : Advanced Video Codec
Format profile                          : High@L3.1
Format settings, CABAC                  : Yes
Format settings, ReFrames               : 5 frames
Codec ID                                : V_MPEG4/ISO/AVC
Duration                                : 2h 6mn
Bit rate                                : 528 Kbps
Width                                   : 848 pixels
Height                                  : 368 pixels
Display aspect ratio                    : 2.35:1
Frame rate                              : 23.976 fps
Color space                             : YUV
Chroma subsampling                      : 4:2:0
Bit depth                               : 8 bits
Scan type                               : Progressive
Bits/(Pixel*Frame)                      : 0.071
Stream size                             : 469 MiB (79%)
Writing library                         : x264 core 116 r2074 2641b9e
Encoding settings                       : cabac=1 / ref=5 / deblock=1:-1:-1 / analyse=0x3:0x113 / me=umh / subme=8 / psy=1 / psy_rd=1.00:0.00 / mixed_ref=1 / me_range=24 / chroma_me=1 / trellis=2 / 8x8dct=1 / cqm=0 / deadzone=21,11 / fast_pskip=1 / chroma_qp_offset=-2 / threads=3 / sliced_threads=0 / nr=0 / decimate=1 / interlaced=0 / bluray_compat=0 / constrained_intra=0 / bframes=3 / b_pyramid=2 / b_adapt=2 / b_bias=0 / direct=3 / weightb=1 / open_gop=0 / weightp=2 / keyint=250 / keyint_min=23 / scenecut=40 / intra_refresh=0 / rc_lookahead=50 / rc=2pass / mbtree=1 / bitrate=528 / ratetol=1.0 / qcomp=0.60 / qpmin=10 / qpmax=69 / qpstep=4 / cplxblur=20.0 / qblur=0.5 / ip_ratio=1.40 / aq=1:1.00

Audio
ID                                      : 2
Format                                  : AC-3
Format/Info                             : Audio Coding 3
Mode extension                          : CM (complete main)
Codec ID                                : A_AC3
Duration                                : 2h 6mn
Bit rate mode                           : Constant
Bit rate                                : 128 Kbps
Channel(s)                              : 2 channels
Channel positions                       : Front: L R
Sampling rate                           : 48.0 KHz
Bit depth                               : 16 bits
Compression mode                        : Lossy
Stream size                             : 116 MiB (19%)

Thanks to Bhatti87